<?xml version="1.0" standalone="no"?>
<!DOCTYPE svg PUBLIC "-//W3C//DTD SVG 20010904//EN"
 "http://www.w3.org/TR/2001/REC-SVG-20010904/DTD/svg10.dtd">
<svg version="1.0" xmlns="http://www.w3.org/2000/svg"
 width="24.000000pt" height="24.000000pt" viewBox="0 0 24.000000 24.000000"
 preserveAspectRatio="xMidYMid meet">

<g transform="translate(0.000000,24.000000) scale(0.100000,-0.100000)"
fill="#000000" stroke="none">
<path d="M12 198 c-16 -16 -16 -140 0 -156 16 -16 200 -16 216 0 16 16 16 140
0 156 -16 16 -200 16 -216 0z m153 -38 c-16 -16 -36 -30 -45 -30 -9 0 -29 14
-45 30 l-29 30 74 0 74 0 -29 -30z m-80 -40 c10 -16 61 -12 75 6 8 8 22 20 32
25 16 9 18 5 18 -46 l0 -56 -92 3 -93 3 -3 59 -3 58 30 -21 c17 -12 33 -26 36
-31z"/>
</g>
</svg>
