<?xml version="1.0" standalone="no"?>
<!DOCTYPE svg PUBLIC "-//W3C//DTD SVG 20010904//EN"
 "http://www.w3.org/TR/2001/REC-SVG-20010904/DTD/svg10.dtd">
<svg version="1.0" xmlns="http://www.w3.org/2000/svg"
 width="32.000000pt" height="32.000000pt" viewBox="0 0 32.000000 32.000000"
 preserveAspectRatio="xMidYMid meet">

<g transform="translate(0.000000,32.000000) scale(0.100000,-0.100000)"
fill="#000000" stroke="none">
<path d="M170 312 c0 -6 11 -13 24 -16 37 -9 84 -53 98 -91 6 -19 16 -35 20
-35 25 0 -28 96 -65 118 -41 25 -77 36 -77 24z"/>
<path d="M25 275 c-14 -13 -25 -33 -25 -45 0 -83 145 -230 227 -230 27 0 73
37 73 59 0 20 -50 71 -70 71 -7 0 -22 -7 -32 -16 -16 -16 -20 -14 -59 25 -39
39 -41 43 -25 59 23 26 20 44 -12 75 -35 33 -46 34 -77 2z m65 -20 c22 -24 23
-26 6 -44 -18 -19 -17 -21 3 -55 12 -19 36 -44 54 -55 29 -19 34 -19 56 -5 22
15 25 15 49 -10 25 -25 25 -26 7 -46 -23 -26 -47 -25 -103 2 -68 34 -142 131
-142 186 0 16 28 52 40 52 3 0 17 -11 30 -25z"/>
<path d="M170 250 c0 -5 6 -10 13 -10 16 0 57 -42 57 -58 0 -7 5 -12 10 -12
20 0 10 32 -19 61 -29 29 -61 39 -61 19z"/>
</g>
</svg>
