<?xml version="1.0" standalone="no"?>
<!DOCTYPE svg PUBLIC "-//W3C//DTD SVG 20010904//EN"
 "http://www.w3.org/TR/2001/REC-SVG-20010904/DTD/svg10.dtd">
<svg version="1.0" xmlns="http://www.w3.org/2000/svg"
 width="24.000000pt" height="24.000000pt" viewBox="0 0 24.000000 24.000000"
 preserveAspectRatio="xMidYMid meet">

<g transform="translate(0.000000,24.000000) scale(0.100000,-0.100000)"
fill="#000000" stroke="none">
<path d="M108 233 c6 -2 18 -2 25 0 6 3 1 5 -13 5 -14 0 -19 -2 -12 -5z"/>
<path d="M34 198 l-19 -23 23 19 c21 18 27 26 19 26 -2 0 -12 -10 -23 -22z"/>
<path d="M195 200 c10 -11 20 -20 23 -20 3 0 -3 9 -13 20 -10 11 -20 20 -23
20 -3 0 3 -9 13 -20z"/>
<path d="M55 170 c-11 -17 27 -82 59 -101 17 -11 40 -18 51 -17 29 4 31 35 3
48 -21 10 -21 10 -5 -3 40 -33 9 -49 -42 -22 -30 15 -66 78 -56 95 3 6 4 10 1
10 -3 0 -8 -4 -11 -10z"/>
<path d="M95 151 c0 -29 20 -61 38 -61 6 0 2 7 -9 15 -15 10 -20 22 -17 38 3
14 1 27 -4 30 -4 3 -8 -7 -8 -22z"/>
<path d="M2 115 c0 -16 2 -22 5 -12 2 9 2 23 0 30 -3 6 -5 -1 -5 -18z"/>
<path d="M232 120 c0 -14 2 -19 5 -12 2 6 2 18 0 25 -3 6 -5 1 -5 -13z"/>
<path d="M12 65 c1 -11 -2 -31 -6 -43 -7 -22 -6 -23 16 -16 12 4 32 7 43 6 14
-1 16 1 6 7 -7 5 -22 6 -34 3 -16 -4 -19 -1 -15 15 3 12 2 27 -3 34 -6 10 -8
8 -7 -6z"/>
<path d="M194 38 l-19 -23 23 19 c21 18 27 26 19 26 -2 0 -12 -10 -23 -22z"/>
<path d="M103 3 c9 -2 23 -2 30 0 6 3 -1 5 -18 5 -16 0 -22 -2 -12 -5z"/>
</g>
</svg>
