<?xml version="1.0" standalone="no"?>
<!DOCTYPE svg PUBLIC "-//W3C//DTD SVG 20010904//EN"
 "http://www.w3.org/TR/2001/REC-SVG-20010904/DTD/svg10.dtd">
<svg version="1.0" xmlns="http://www.w3.org/2000/svg"
 width="32.000000pt" height="32.000000pt" viewBox="0 0 32.000000 32.000000"
 preserveAspectRatio="xMidYMid meet">

<g transform="translate(0.000000,32.000000) scale(0.100000,-0.100000)"
fill="#000000" stroke="none">
<path d="M210 290 c-40 -40 -11 -110 45 -110 56 0 85 70 45 110 -11 11 -31 20
-45 20 -14 0 -34 -9 -45 -20z m70 -50 c0 -13 -26 -19 -40 -10 -11 7 -11 11 -1
24 11 12 17 14 27 5 8 -6 14 -15 14 -19z"/>
<path d="M0 260 c0 -5 13 -10 29 -10 32 0 31 1 51 -89 11 -47 11 -55 -4 -63
-23 -13 -20 -25 14 -60 31 -30 60 -32 60 -3 0 8 9 15 20 15 11 0 20 -7 20 -15
0 -28 31 -30 51 -4 10 13 19 27 19 31 0 4 -42 9 -92 11 l-93 3 92 2 c99 2 90
-3 109 62 4 17 1 20 -23 20 -16 0 -34 5 -41 12 -9 9 -12 9 -12 0 0 -7 -9 -12
-20 -12 -13 0 -20 7 -20 20 0 11 5 20 11 20 5 0 7 5 4 10 -3 6 -26 10 -51 10
-40 0 -44 2 -44 25 0 23 -4 25 -40 25 -22 0 -40 -4 -40 -10z m140 -80 c0 -13
-7 -20 -20 -20 -11 0 -20 2 -20 4 0 2 -3 11 -6 20 -5 12 0 16 20 16 19 0 26
-5 26 -20z m0 -60 c0 -11 -6 -20 -14 -20 -7 0 -16 9 -19 20 -4 15 0 20 14 20
12 0 19 -7 19 -20z m58 3 c-4 -23 -32 -23 -36 0 -2 12 3 17 18 17 15 0 20 -5
18 -17z m52 -3 c-12 -22 -25 -26 -35 -10 -9 15 4 30 26 30 17 0 18 -3 9 -20z"/>
</g>
</svg>
